<svg id="svgcontent" width="955" height="626" x="0" y="0" overflow="visible" xmlns="http://www.w3.org/2000/svg" xmlns:se="http://imprintnext.com" xmlns:xlink="http://www.w3.org/1999/xlink" viewBox="0 0 955 626"><!-- Made with luv in USA by ImprintNext - https://imprintnext.com--><defs><clipPath id="bound_0" xe_id="bound_0"><rect id="xe_4aqc9l" x="134.64253859348207" y="71.30000000000001" pointer-events="all" width="685.7149228130359" height="483.4"></rect></clipPath></defs><g id="bounds" display="none"><path d="M134.64253859348207 71.30000000000001 L820.3574614065179 71.30000000000001 L820.3574614065179 554.7 L134.64253859348207 554.7  Z" x="134.64253859348207" y="71.30000000000001" width="685.7149228130359" height="483.4" aWidth="8.27" aHeight="5.83" fill="none" stroke="#006400" isBleed="0" safeVal="0" cropVal="0" stroke-miterlimit="null" stroke-width="1" pointer-events="all" id="bound_0" xe_id="bound_0"></path></g><g class="layer" id="Layer_0" xe_id="Layer_0" style="pointer-events:all" clip-path="url(#bound_0)"><title>Layer_0</title><g id="background" type="bg_area_0" pointer-events="none" style="color-interpolation-filters:sRGB;pointer-events: none;"></g><g id="xe_ahqchy" type="text" style="pointer-events: bounding-box;" pointer-events="bounding-box" xe-props="&amp;#35;&amp;#103;&amp;#76;&amp;#73;&amp;#65;&amp;#101;&amp;#122;&amp;#127;&amp;#26;&amp;#68;&amp;#84;&amp;#120;&amp;#44;&amp;#103;&amp;#20;&amp;#18;&amp;#69;&amp;#101;&amp;#32;&amp;#49;&amp;#26;&amp;#10;&amp;#19;&amp;#73;&amp;#54;&amp;#54;&amp;#76;&amp;#81;&amp;#93;&amp;#108;&amp;#57;&amp;#49;&amp;#87;&amp;#94;&amp;#17;&amp;#70;&amp;#49;&amp;#43;&amp;#81;&amp;#67;&amp;#89;&amp;#101;&amp;#60;&amp;#103;&amp;#20;&amp;#18;&amp;#87;&amp;#111;&amp;#54;&amp;#49;&amp;#26;&amp;#10;&amp;#74;&amp;#34;&amp;#32;&amp;#32;&amp;#103;&amp;#89;&amp;#85;&amp;#34;&amp;#98;&amp;#116;&amp;#10;&amp;#4;&amp;#29;&amp;#34;&amp;#54;&amp;#36;&amp;#85;&amp;#85;&amp;#19;&amp;#58;&amp;#122;&amp;#2;&amp;#74;&amp;#81;&amp;#65;&amp;#104;&amp;#49;&amp;#46;&amp;#21;&amp;#4;&amp;#1;&amp;#48;&amp;#117;&amp;#23;&amp;#93;&amp;#87;&amp;#68;&amp;#108;&amp;#57;&amp;#55;&amp;#26;&amp;#28;&amp;#19;&amp;#112;&amp;#42;&amp;#44;&amp;#91;&amp;#85;&amp;#19;&amp;#58;&amp;#104;&amp;#105;&amp;#26;&amp;#86;&amp;#94;&amp;#110;&amp;#44;&amp;#26;&amp;#94;&amp;#81;&amp;#92;&amp;#105;&amp;#52;&amp;#60;&amp;#26;&amp;#10;&amp;#19;&amp;#71;&amp;#42;&amp;#36;&amp;#72;&amp;#88;&amp;#88;&amp;#107;&amp;#120;&amp;#23;&amp;#93;&amp;#87;&amp;#68;&amp;#108;&amp;#57;&amp;#55;&amp;#26;&amp;#28;&amp;#19;&amp;#102;&amp;#49;&amp;#41;&amp;#93;&amp;#111;&amp;#95;&amp;#97;&amp;#53;&amp;#32;&amp;#26;&amp;#10;&amp;#19;&amp;#104;&amp;#44;&amp;#49;&amp;#72;&amp;#67;&amp;#11;&amp;#47;&amp;#119;&amp;#44;&amp;#85;&amp;#64;&amp;#67;&amp;#105;&amp;#54;&amp;#49;&amp;#86;&amp;#85;&amp;#73;&amp;#116;&amp;#118;&amp;#44;&amp;#87;&amp;#31;&amp;#73;&amp;#101;&amp;#44;&amp;#42;&amp;#87;&amp;#92;&amp;#30;&amp;#97;&amp;#43;&amp;#54;&amp;#93;&amp;#68;&amp;#66;&amp;#47;&amp;#62;&amp;#42;&amp;#86;&amp;#68;&amp;#66;&amp;#47;&amp;#106;&amp;#117;&amp;#10;&amp;#1;&amp;#1;&amp;#52;&amp;#104;&amp;#112;&amp;#9;&amp;#2;&amp;#1;&amp;#52;&amp;#107;&amp;#116;&amp;#15;&amp;#1;&amp;#1;&amp;#57;&amp;#118;&amp;#49;&amp;#76;&amp;#86;&amp;#19;&amp;#44;&amp;#122;&amp;#38;&amp;#84;&amp;#95;&amp;#68;&amp;#100;&amp;#7;&amp;#54;&amp;#76;&amp;#95;&amp;#67;&amp;#97;&amp;#63;&amp;#32;&amp;#26;&amp;#10;&amp;#1;&amp;#44;&amp;#122;&amp;#38;&amp;#89;&amp;#68;&amp;#84;&amp;#103;&amp;#55;&amp;#55;&amp;#65;&amp;#111;&amp;#95;&amp;#97;&amp;#53;&amp;#32;&amp;#75;&amp;#18;&amp;#11;&amp;#34;&amp;#25;&amp;#38;&amp;#76;&amp;#89;&amp;#94;&amp;#110;&amp;#116;&amp;#101;&amp;#117;&amp;#89;&amp;#93;&amp;#105;&amp;#44;&amp;#36;&amp;#74;&amp;#73;&amp;#29;&amp;#32;&amp;#30;&amp;#48;&amp;#86;&amp;#28;&amp;#17;&amp;#76;&amp;#55;&amp;#51;&amp;#93;&amp;#28;&amp;#17;&amp;#80;&amp;#42;&amp;#32;&amp;#85;&amp;#89;&amp;#68;&amp;#109;&amp;#120;&amp;#35;&amp;#87;&amp;#94;&amp;#69;&amp;#44;&amp;#120;&amp;#7;&amp;#81;&amp;#82;&amp;#93;&amp;#101;&amp;#120;&amp;#3;&amp;#87;&amp;#94;&amp;#69;&amp;#34;&amp;#37;&amp;#105;&amp;#26;&amp;#86;&amp;#88;&amp;#108;&amp;#52;&amp;#103;&amp;#2;&amp;#18;&amp;#18;&amp;#102;&amp;#62;&amp;#35;&amp;#94;&amp;#86;&amp;#87;&amp;#34;&amp;#116;&amp;#103;&amp;#94;&amp;#89;&amp;#93;&amp;#108;&amp;#22;&amp;#36;&amp;#85;&amp;#85;&amp;#19;&amp;#58;&amp;#122;&amp;#102;&amp;#94;&amp;#86;&amp;#87;&amp;#102;&amp;#62;&amp;#35;&amp;#26;&amp;#28;&amp;#19;&amp;#115;&amp;#44;&amp;#55;&amp;#87;&amp;#91;&amp;#84;&amp;#34;&amp;#98;&amp;#103;&amp;#27;&amp;#0;&amp;#1;&amp;#48;&amp;#104;&amp;#117;&amp;#8;&amp;#18;&amp;#29;&amp;#34;&amp;#43;&amp;#49;&amp;#74;&amp;#95;&amp;#90;&amp;#101;&amp;#22;&amp;#36;&amp;#85;&amp;#85;&amp;#19;&amp;#58;&amp;#122;&amp;#102;&amp;#8;&amp;#0;&amp;#1;&amp;#48;&amp;#104;&amp;#117;&amp;#26;&amp;#28;&amp;#19;&amp;#116;&amp;#61;&amp;#61;&amp;#76;&amp;#124;&amp;#84;&amp;#110;&amp;#122;&amp;#127;&amp;#10;&amp;#0;&amp;#29;&amp;#34;&amp;#43;&amp;#49;&amp;#74;&amp;#95;&amp;#90;&amp;#101;&amp;#15;&amp;#44;&amp;#92;&amp;#68;&amp;#89;&amp;#34;&amp;#98;&amp;#117;&amp;#20;&amp;#18;&amp;#95;&amp;#111;&amp;#23;&amp;#35;&amp;#116;&amp;#89;&amp;#95;&amp;#101;&amp;#43;&amp;#103;&amp;#2;&amp;#0;&amp;#29;&amp;#34;&amp;#52;&amp;#44;&amp;#86;&amp;#85;&amp;#98;&amp;#112;&amp;#57;&amp;#38;&amp;#93;&amp;#18;&amp;#11;&amp;#48;&amp;#116;&amp;#103;&amp;#84;&amp;#85;&amp;#69;&amp;#116;&amp;#61;&amp;#55;&amp;#107;&amp;#64;&amp;#80;&amp;#99;&amp;#61;&amp;#103;&amp;#2;&amp;#5;&amp;#29;&amp;#34;&amp;#62;&amp;#42;&amp;#86;&amp;#68;&amp;#98;&amp;#105;&amp;#34;&amp;#32;&amp;#26;&amp;#10;&amp;#6;&amp;#50;&amp;#116;&amp;#103;&amp;#89;&amp;#66;&amp;#69;&amp;#83;&amp;#49;&amp;#63;&amp;#93;&amp;#18;&amp;#11;&amp;#49;&amp;#116;&amp;#103;&amp;#93;&amp;#86;&amp;#87;&amp;#101;&amp;#59;&amp;#49;&amp;#26;&amp;#10;&amp;#19;&amp;#110;&amp;#55;&amp;#43;&amp;#93;&amp;#18;&amp;#29;&amp;#34;&amp;#57;&amp;#41;&amp;#81;&amp;#87;&amp;#95;&amp;#34;&amp;#98;&amp;#103;&amp;#91;&amp;#85;&amp;#95;&amp;#116;&amp;#61;&amp;#55;&amp;#26;&amp;#28;&amp;#19;&amp;#99;&amp;#55;&amp;#41;&amp;#87;&amp;#66;&amp;#66;&amp;#34;&amp;#98;&amp;#30;&amp;#26;&amp;#19;&amp;#87;&amp;#102;&amp;#62;&amp;#35;&amp;#94;&amp;#86;&amp;#19;&amp;#44;&amp;#122;&amp;#102;&amp;#8;&amp;#0;&amp;#1;&amp;#48;&amp;#104;&amp;#117;&amp;#26;&amp;#109;&amp;#29;&amp;#34;&amp;#32;&amp;#32;&amp;#113;&amp;#84;&amp;#19;&amp;#58;&amp;#105;&amp;#119;&amp;#12;&amp;#28;&amp;#19;&amp;#111;&amp;#58;&amp;#47;&amp;#93;&amp;#83;&amp;#69;&amp;#84;&amp;#49;&amp;#49;&amp;#84;&amp;#85;&amp;#19;&amp;#58;&amp;#122;&amp;#103;&amp;#20;&amp;#18;&amp;#94;&amp;#112;&amp;#61;&amp;#55;&amp;#89;&amp;#68;&amp;#88;&amp;#111;&amp;#54;&amp;#103;&amp;#2;&amp;#18;&amp;#68;&amp;#112;&amp;#60;&amp;#36;&amp;#76;&amp;#85;&amp;#19;&amp;#44;&amp;#122;&amp;#44;&amp;#75;&amp;#100;&amp;#84;&amp;#109;&amp;#40;&amp;#41;&amp;#89;&amp;#68;&amp;#84;&amp;#69;&amp;#52;&amp;#32;&amp;#85;&amp;#18;&amp;#11;&amp;#102;&amp;#57;&amp;#41;&amp;#75;&amp;#85;&amp;#29;&amp;#34;&amp;#49;&amp;#54;&amp;#110;&amp;#85;&amp;#67;&amp;#116;&amp;#49;&amp;#38;&amp;#89;&amp;#92;&amp;#19;&amp;#58;&amp;#62;&amp;#36;&amp;#84;&amp;#67;&amp;#84;&amp;#44;&amp;#122;&amp;#44;&amp;#75;&amp;#100;&amp;#84;&amp;#109;&amp;#40;&amp;#41;&amp;#89;&amp;#68;&amp;#84;&amp;#73;&amp;#53;&amp;#34;&amp;#26;&amp;#10;&amp;#87;&amp;#97;&amp;#52;&amp;#54;&amp;#93;&amp;#28;&amp;#19;&amp;#108;&amp;#55;&amp;#38;&amp;#83;&amp;#18;&amp;#11;&amp;#123;&amp;#122;&amp;#38;&amp;#87;&amp;#92;&amp;#94;&amp;#114;&amp;#29;&amp;#33;&amp;#81;&amp;#68;&amp;#19;&amp;#58;&amp;#62;&amp;#36;&amp;#84;&amp;#67;&amp;#84;&amp;#44;&amp;#122;&amp;#33;&amp;#93;&amp;#92;&amp;#84;&amp;#116;&amp;#61;&amp;#103;&amp;#2;&amp;#86;&amp;#80;&amp;#108;&amp;#43;&amp;#32;&amp;#20;&amp;#18;&amp;#92;&amp;#111;&amp;#46;&amp;#32;&amp;#26;&amp;#10;&amp;#87;&amp;#97;&amp;#52;&amp;#54;&amp;#93;&amp;#28;&amp;#19;&amp;#114;&amp;#55;&amp;#49;&amp;#89;&amp;#68;&amp;#84;&amp;#34;&amp;#98;&amp;#35;&amp;#89;&amp;#92;&amp;#66;&amp;#101;&amp;#116;&amp;#103;&amp;#74;&amp;#85;&amp;#66;&amp;#105;&amp;#34;&amp;#32;&amp;#26;&amp;#10;&amp;#87;&amp;#97;&amp;#52;&amp;#54;&amp;#93;&amp;#28;&amp;#19;&amp;#101;&amp;#60;&amp;#44;&amp;#76;&amp;#118;&amp;#94;&amp;#110;&amp;#44;&amp;#103;&amp;#2;&amp;#86;&amp;#80;&amp;#108;&amp;#43;&amp;#32;&amp;#20;&amp;#18;&amp;#84;&amp;#100;&amp;#49;&amp;#49;&amp;#26;&amp;#10;&amp;#87;&amp;#97;&amp;#52;&amp;#54;&amp;#93;&amp;#77;&amp;#29;&amp;#34;&amp;#49;&amp;#54;&amp;#104;&amp;#81;&amp;#69;&amp;#116;&amp;#61;&amp;#55;&amp;#86;&amp;#118;&amp;#88;&amp;#108;&amp;#52;&amp;#103;&amp;#2;&amp;#86;&amp;#80;&amp;#108;&amp;#43;&amp;#32;&amp;#20;&amp;#18;&amp;#88;&amp;#115;&amp;#8;&amp;#36;&amp;#76;&amp;#68;&amp;#84;&amp;#114;&amp;#54;&amp;#22;&amp;#76;&amp;#66;&amp;#94;&amp;#107;&amp;#61;&amp;#103;&amp;#2;&amp;#86;&amp;#80;&amp;#108;&amp;#43;&amp;#32;&amp;#69;"><rect x="120.49028778076172" y="284.8450050354004" id="xe_lrfqu4" fill="none" opacity="0" width="56.303989932060254" height="56.303989932060254"></rect><g id="xe_nw1uim"><path d="M133.5902854382992,340.50499493002894 L127.33028655767441,340.50499493002894 L127.33028655767441,289.0250041353703 L133.5902854382992,289.0250041353703 L133.5902854382992,340.50499493002894 z" paint-order="stroke" id="xe_rzoxn6" fill="#ffffff" stroke="#000000" stroke-width="0"></path><path d="M156.06028142035007,340.50499493002894 L150.0802824896574,340.50499493002894 L150.0802824896574,302.8450016641617 L156.06028142035007,302.8450016641617 L156.06028142035007,308.8250005948544 Q157.43028117537497,305.94500110983853 160.59028061032296,304.07500144422056 Q163.7602800434828,302.20500177860265 168.1502792584896,302.20500177860265 L168.1502792584896,302.20500177860265 Q174.3502781498432,302.20500177860265 177.87027752041817,305.87500112235546 Q181.40027688920497,309.5450004661084 181.40027688920497,317.39499906241895 L181.40027688920497,317.39499906241895 L181.40027688920497,340.50499493002894 L175.43027795672415,340.50499493002894 L175.43027795672415,316.96499913930893 Q175.43027795672415,311.9950000280142 173.27027834296226,309.6850004410744 Q171.11027872920036,307.3850008523465 166.57027954101562,307.3850008523465 L166.57027954101562,307.3850008523465 Q162.18028032600878,307.3850008523465 159.12028087317944,310.1250003623963 Q156.06028142035007,312.85499987423424 156.06028142035007,317.68499901056293 L156.06028142035007,317.68499901056293 L156.06028142035007,340.50499493002894 z" paint-order="stroke" id="xe_dekaz9" fill="#ffffff" stroke="#000000" stroke-width="0"></path><path d="M208.40027206122875,341.1549948137999 L208.40027206122875,341.1549948137999 Q201.63027327179907,341.1549948137999 197.78027396023276,337.914995393157 Q193.9302746486664,334.6749959725142 193.6402747005224,328.91499700248244 L193.6402747005224,328.91499700248244 L199.47027365803717,328.91499700248244 Q200.19027352929118,336.18499570250515 208.33027207374573,336.18499570250515 L208.33027207374573,336.18499570250515 Q216.5402706056833,336.18499570250515 216.5402706056833,330.2049967718125 L216.5402706056833,330.2049967718125 Q216.5402706056833,327.40499727249147 214.4902709722519,326.06499751210214 Q212.4302713406086,324.7349977499247 207.75027217745782,323.8749979037047 L207.75027217745782,323.8749979037047 Q200.4102734899521,322.50499814867976 197.53027400493625,320.09499857962135 Q194.65027451992034,317.68499901056293 194.65027451992034,312.7849998867512 Q194.65027451992034,307.8850007629395 198.57027381896972,305.0450012707711 Q202.50027311623097,302.20500177860265 207.39027224183081,302.20500177860265 L207.39027224183081,302.20500177860265 Q219.63027005314825,302.20500177860265 221.0002698081732,313.07499983489515 L221.0002698081732,313.07499983489515 L215.24027083814144,313.07499983489515 Q214.5902709543705,309.97500038921834 212.72027128875254,308.57500063955786 Q210.85027162313463,307.1650008916855 207.3202722543478,307.1650008916855 L207.3202722543478,307.1650008916855 Q204.08027283370495,307.1650008916855 202.14027318060397,308.6450006270409 Q200.19027352929118,310.1250003623963 200.19027352929118,312.56499992609025 L200.19027352929118,312.56499992609025 Q200.19027352929118,315.16499946117403 202.03027320027354,316.384999243021 Q203.87027287125585,317.60499902486805 208.98027195751666,318.54499885678297 L208.98027195751666,318.54499885678297 Q212.3602713531256,319.1949987405539 214.410270986557,319.80499863147736 Q216.4702706182003,320.4149985224009 218.45027026414868,321.6449983024597 Q220.43026991009714,322.86499808430676 221.3302697491646,324.84499773025516 Q222.23026958823203,326.82499737620356 222.23026958823203,329.70499686121946 L222.23026958823203,329.70499686121946 Q222.23026958823203,334.9649959206581 218.6602702265978,338.05499536812306 Q215.1002708631754,341.1549948137999 208.40027206122875,341.1549948137999 z" paint-order="stroke" id="xe_eq6a5q" fill="#ffffff" stroke="#000000" stroke-width="0"></path><path d="M246.35026527523996,341.004994840622 L246.35026527523996,341.004994840622 Q241.38026616394518,341.004994840622 238.79026662707327,338.34499531626705 Q236.19026709198954,335.6849957919121 236.19026709198954,331.07499661624433 L236.19026709198954,331.07499661624433 L236.19026709198954,307.8850007629395 L230.79026805758474,307.8850007629395 L230.79026805758474,302.8450016641617 L236.19026709198954,302.8450016641617 L236.19026709198954,294.285003194809 L242.1702660226822,294.285003194809 L242.1702660226822,302.8450016641617 L250.95026445269585,302.8450016641617 L250.95026445269585,307.8850007629395 L242.1702660226822,307.8850007629395 L242.1702660226822,330.4949967199564 Q242.1702660226822,335.9649957418442 246.850265185833,335.9649957418442 L246.850265185833,335.9649957418442 Q249.44026472270488,335.9649957418442 251.46026436150075,335.1749958831072 L251.46026436150075,335.1749958831072 L251.46026436150075,340.21499498188496 Q249.23026476025584,341.004994840622 246.35026527523996,341.004994840622 z" paint-order="stroke" id="xe_gw7u40" fill="#ffffff" stroke="#000000" stroke-width="0"></path><path d="M273.49026042222977,341.1549948137999 L273.49026042222977,341.1549948137999 Q267.95026141285894,341.1549948137999 264.4502620387077,338.38499530911446 Q260.9602626627684,335.60499580621723 260.9602626627684,330.0649967968464 L260.9602626627684,330.0649967968464 Q260.9602626627684,324.0149978786707 266.33026170253754,321.2049983811379 Q271.69026074409487,318.4049988818169 279.8302592885494,318.4049988818169 L279.8302592885494,318.4049988818169 L285.2302583229542,318.4049988818169 L285.2302583229542,315.66499937176707 Q285.2302583229542,311.12500018358236 283.3502586591244,309.1450005376339 Q281.4802589935065,307.1650008916855 277.1602597659826,307.1650008916855 L277.1602597659826,307.1650008916855 Q269.39026115536694,307.1650008916855 268.520261310935,313.9349996811152 L268.520261310935,313.9349996811152 L262.55026237845425,313.9349996811152 Q263.1202622765303,307.8850007629395 267.30026152908806,305.0450012707711 Q271.4702607834339,302.20500177860265 277.45025971412656,302.20500177860265 L277.45025971412656,302.20500177860265 Q291.20025725543496,302.20500177860265 291.20025725543496,315.66499937176707 L291.20025725543496,315.66499937176707 L291.20025725543496,340.50499493002894 L285.2302583229542,340.50499493002894 L285.2302583229542,335.75499577939513 Q280.9102590954303,341.1549948137999 273.49026042222977,341.1549948137999 zM274.07026031851774,336.40499566316606 L274.07026031851774,336.40499566316606 Q278.9602594441176,336.40499566316606 282.0902588844299,333.9849960958958 Q285.2302583229542,331.57499652683737 285.2302583229542,327.3249972867966 L285.2302583229542,327.3249972867966 L285.2302583229542,322.6449981236458 L280.0402592509985,322.6449981236458 Q266.94026159346106,322.6449981236458 266.94026159346106,330.0649967968464 L266.94026159346106,330.0649967968464 Q266.94026159346106,336.40499566316606 274.07026031851774,336.40499566316606 z" paint-order="stroke" id="xe_0jvfv4" fill="#ffffff" stroke="#000000" stroke-width="0"></path><path d="M312.73025340557103,340.50499493002894 L306.68025448739525,340.50499493002894 L306.68025448739525,284.84500488281253 L312.73025340557103,284.84500488281253 L312.73025340557103,340.50499493002894 z" paint-order="stroke" id="xe_vqxwsh" fill="#ffffff" stroke="#000000" stroke-width="0"></path><path d="M334.7602494663,340.50499493002894 L328.71025054812435,340.50499493002894 L328.71025054812435,284.84500488281253 L334.7602494663,284.84500488281253 L334.7602494663,340.50499493002894 z" paint-order="stroke" id="xe_9pbec4" fill="#ffffff" stroke="#000000" stroke-width="0"></path><path d="M360.0302449476719,341.1549948137999 L360.0302449476719,341.1549948137999 Q354.4902459383011,341.1549948137999 351.00024656236167,338.38499530911446 Q347.51024718642236,335.60499580621723 347.51024718642236,330.0649967968464 L347.51024718642236,330.0649967968464 Q347.51024718642236,324.0149978786707 352.8702462279797,321.2049983811379 Q358.230245269537,318.4049988818169 366.3702438139916,318.4049988818169 L366.3702438139916,318.4049988818169 L371.77024284839626,318.4049988818169 L371.77024284839626,315.66499937176707 Q371.77024284839626,311.12500018358236 369.90024318277835,309.1450005376339 Q368.03024351716044,307.1650008916855 363.71024428963665,307.1650008916855 L363.71024428963665,307.1650008916855 Q355.930245680809,307.1650008916855 355.07024583458906,313.9349996811152 L355.07024583458906,313.9349996811152 L349.0902469038963,313.9349996811152 Q349.67024680018426,307.8850007629395 353.8402460545301,305.0450012707711 Q358.02024530708786,302.20500177860265 363.9902442395687,302.20500177860265 L363.9902442395687,302.20500177860265 Q377.750241779089,302.20500177860265 377.750241779089,315.66499937176707 L377.750241779089,315.66499937176707 L377.750241779089,340.50499493002894 L371.77024284839626,340.50499493002894 L371.77024284839626,335.75499577939513 Q367.45024362087247,341.1549948137999 360.0302449476719,341.1549948137999 zM360.6102448439598,336.40499566316606 L360.6102448439598,336.40499566316606 Q365.51024396777154,336.40499566316606 368.64024340808396,333.9849960958958 Q371.77024284839626,331.57499652683737 371.77024284839626,327.3249972867966 L371.77024284839626,327.3249972867966 L371.77024284839626,322.6449981236458 L366.59024377465244,322.6449981236458 Q353.4802461189032,322.6449981236458 353.4802461189032,330.0649967968464 L353.4802461189032,330.0649967968464 Q353.4802461189032,336.40499566316606 360.6102448439598,336.40499566316606 z" paint-order="stroke" id="xe_d6chym" fill="#ffffff" stroke="#000000" stroke-width="0"></path><path d="M404.53023699045184,341.004994840622 L404.53023699045184,341.004994840622 Q399.56023787915706,341.004994840622 396.9702383422852,338.34499531626705 Q394.3802388054132,335.6849957919121 394.3802388054132,331.07499661624433 L394.3802388054132,331.07499661624433 L394.3802388054132,307.8850007629395 L388.9802397710085,307.8850007629395 L388.9802397710085,302.8450016641617 L394.3802388054132,302.8450016641617 L394.3802388054132,294.285003194809 L400.3502377378941,294.285003194809 L400.3502377378941,302.8450016641617 L409.14023616611956,302.8450016641617 L409.14023616611956,307.8850007629395 L400.3502377378941,307.8850007629395 L400.3502377378941,330.4949967199564 Q400.3502377378941,335.9649957418442 405.0302369010449,335.9649957418442 L405.0302369010449,335.9649957418442 Q407.6302364361286,335.9649957418442 409.6402360767126,335.1749958831072 L409.6402360767126,335.1749958831072 L409.6402360767126,340.21499498188496 Q407.4102364754677,341.004994840622 404.53023699045184,341.004994840622 z" paint-order="stroke" id="xe_nsk7sr" fill="#ffffff" stroke="#000000" stroke-width="0"></path><path d="M437.94023101627823,336.18499570250515 L437.94023101627823,336.18499570250515 Q443.5502300131321,336.18499570250515 446.90022941410547,332.29499639809137 Q450.25022881507874,328.40499709367754 450.25022881507874,322.0049982380867 L450.25022881507874,322.0049982380867 L450.25022881507874,321.4949983292818 Q450.25022881507874,314.9449995005131 446.90022941410547,311.0550001960993 Q443.5502300131321,307.1650008916855 437.94023101627823,307.1650008916855 L437.94023101627823,307.1650008916855 Q432.25023203372956,307.1650008916855 428.94023262560364,311.0550001960993 Q425.6302332174778,314.9449995005131 425.6302332174778,321.4249983417988 L425.6302332174778,321.4249983417988 L425.6302332174778,322.0049982380867 Q425.6302332174778,328.4849970793724 428.94023262560364,332.3349963909388 Q432.25023203372956,336.18499570250515 437.94023101627823,336.18499570250515 zM437.8702310287952,341.1549948137999 L437.8702310287952,341.1549948137999 Q429.8702324593067,341.1549948137999 424.6502333927155,335.71499578654766 Q419.4302343261242,330.2849967575074 419.4302343261242,322.0049982380867 L419.4302343261242,322.0049982380867 L419.4302343261242,321.4249983417988 Q419.4302343261242,313.00499984741214 424.6502333927155,307.6050008130074 Q429.8702324593067,302.20500177860265 437.94023101627823,302.20500177860265 Q446.00022957503796,302.20500177860265 451.22022864162926,307.5650008201599 Q456.44022770822045,312.92499986171725 456.44022770822045,321.3549983543158 L456.44022770822045,321.3549983543158 L456.44022770822045,321.92499825239184 Q456.44022770822045,330.4249967324734 451.1902286469936,335.78499577403073 Q445.93022958755495,341.1549948137999 437.8702310287952,341.1549948137999 z" paint-order="stroke" id="xe_lpi7fo" fill="#ffffff" stroke="#000000" stroke-width="0"></path><path d="M475.31022433400153,340.50499493002894 L469.3302254033088,340.50499493002894 L469.3302254033088,302.8450016641617 L475.31022433400153,302.8450016641617 L475.31022433400153,308.8250005948544 Q476.6702240908146,305.94500110983853 479.84022352397443,304.07500144422056 Q483.0102229571342,302.20500177860265 487.4002221721411,302.20500177860265 L487.4002221721411,302.20500177860265 Q493.59022106528283,302.20500177860265 497.1202204340696,305.87500112235546 Q500.6502198028565,309.5450004661084 500.6502198028565,317.39499906241895 L500.6502198028565,317.39499906241895 L500.6502198028565,340.50499493002894 L494.6702208721638,340.50499493002894 L494.6702208721638,316.96499913930893 Q494.6702208721638,311.9950000280142 492.5102212584018,309.6850004410744 Q490.35022164464,307.3850008523465 485.8202224546671,307.3850008523465 L485.8202224546671,307.3850008523465 Q481.4302232396603,307.3850008523465 478.3702237868309,310.1250003623963 Q475.31022433400153,312.85499987423424 475.31022433400153,317.68499901056293 L475.31022433400153,317.68499901056293 L475.31022433400153,340.50499493002894 z" paint-order="stroke" id="xe_k5pfxl" fill="#ffffff" stroke="#000000" stroke-width="0"></path><path d="" paint-order="stroke" id="xe_zasfxr" fill="#ffffff" stroke="#000000" stroke-width="0"></path><path d="M545.3602118080855,340.50499493002894 L539.1002129274607,340.50499493002894 L539.1002129274607,289.0250041353703 L569.1902075469493,289.0250041353703 L569.1902075469493,294.1350032216311 L545.3602118080855,294.1350032216311 L545.3602118080855,312.3549999636412 L563.9402084857225,312.3549999636412 L563.9402084857225,317.46499904990196 L545.3602118080855,317.46499904990196 L545.3602118080855,340.50499493002894 z" paint-order="stroke" id="xe_g4cpx6" fill="#ffffff" stroke="#000000" stroke-width="0"></path><path d="M587.7002042371034,340.50499493002894 L581.7202053064109,340.50499493002894 L581.7202053064109,302.8450016641617 L587.7002042371034,302.8450016641617 L587.7002042371034,340.50499493002894 zM587.370204296112,293.8450032734871 Q586.1902045071124,295.00500306606295 584.6002047914267,295.00500306606295 Q583.0202050739526,295.00500306606295 581.8302052867411,293.8450032734871 Q580.6402054995299,292.69500347912316 580.6402054995299,291.04500377416616 Q580.6402054995299,289.3850040709973 581.8302052867411,288.2350042766333 Q583.0202050739526,287.0850044822693 584.6002047914267,287.0850044822693 Q586.1902045071124,287.0850044822693 587.370204296112,288.2350042766333 Q588.5602040833235,289.3850040709973 588.5602040833235,291.04500377416616 Q588.5602040833235,292.69500347912316 587.370204296112,293.8450032734871 z" paint-order="stroke" id="xe_rujqif" fill="#ffffff" stroke="#000000" stroke-width="0"></path><path d="M609.5102003371715,340.50499493002894 L603.5402014046908,340.50499493002894 L603.5402014046908,302.8450016641617 L609.5102003371715,302.8450016641617 L609.5102003371715,308.8250005948544 Q610.8802000921964,305.94500110983853 614.0501995253562,304.07500144422056 Q617.2201989585162,302.20500177860265 621.610198173523,302.20500177860265 L621.610198173523,302.20500177860265 Q627.8001970666646,302.20500177860265 631.3301964354514,305.87500112235546 Q634.8601958042383,309.5450004661084 634.8601958042383,317.39499906241895 L634.8601958042383,317.39499906241895 L634.8601958042383,340.50499493002894 L628.8801968735456,340.50499493002894 L628.8801968735456,316.96499913930893 Q628.8801968735456,311.9950000280142 626.7201972597838,309.6850004410744 Q624.5601976460218,307.3850008523465 620.030198456049,307.3850008523465 L620.030198456049,307.3850008523465 Q615.6301992428303,307.3850008523465 612.570199790001,310.1250003623963 Q609.5102003371715,312.85499987423424 609.5102003371715,317.68499901056293 L609.5102003371715,317.68499901056293 L609.5102003371715,340.50499493002894 z" paint-order="stroke" id="xe_nfs9zz" fill="#ffffff" stroke="#000000" stroke-width="0"></path><path d="M656.3101919686795,340.50499493002894 L650.3401930361987,340.50499493002894 L650.3401930361987,302.8450016641617 L656.3101919686795,302.8450016641617 L656.3101919686795,340.50499493002894 zM655.9901920258999,293.8450032734871 Q654.8001922386884,295.00500306606295 653.2201925212145,295.00500306606295 Q651.6301928055286,295.00500306606295 650.4501930165292,293.8450032734871 Q649.2601932293177,292.69500347912316 649.2601932293177,291.04500377416616 Q649.2601932293177,289.3850040709973 650.4501930165292,288.2350042766333 Q651.6301928055286,287.0850044822693 653.2201925212145,287.0850044822693 Q654.8001922386884,287.0850044822693 655.9901920258999,288.2350042766333 Q657.1801918131114,289.3850040709973 657.1801918131114,291.04500377416616 Q657.1801918131114,292.69500347912316 655.9901920258999,293.8450032734871 z" paint-order="stroke" id="xe_uyl1kf" fill="#ffffff" stroke="#000000" stroke-width="0"></path><path d="M683.8201870495081,341.1549948137999 L683.8201870495081,341.1549948137999 Q677.0501882600784,341.1549948137999 673.2001889485122,337.914995393157 Q669.3501896369457,334.6749959725142 669.0601896888019,328.91499700248244 L669.0601896888019,328.91499700248244 L674.8901886463165,328.91499700248244 Q675.6101885175705,336.18499570250515 683.750187062025,336.18499570250515 L683.750187062025,336.18499570250515 Q691.9501855957509,336.18499570250515 691.9501855957509,330.2049967718125 L691.9501855957509,330.2049967718125 Q691.9501855957509,327.40499727249147 689.9001859623194,326.06499751210214 Q687.850186328888,324.7349977499247 683.170187165737,323.8749979037047 L683.170187165737,323.8749979037047 Q675.8301884782314,322.50499814867976 672.9501889932156,320.09499857962135 Q670.0701895081997,317.68499901056293 670.0701895081997,312.7849998867512 Q670.0701895081997,307.8850007629395 673.9901888072491,305.0450012707711 Q677.9101881062984,302.20500177860265 682.8101872301103,302.20500177860265 L682.8101872301103,302.20500177860265 Q695.0501850414275,302.20500177860265 696.4201847964524,313.07499983489515 L696.4201847964524,313.07499983489515 L690.6601858264207,313.07499983489515 Q690.0101859426499,309.97500038921834 688.1401862770318,308.57500063955786 Q686.2701866114139,307.1650008916855 682.7401872426271,307.1650008916855 L682.7401872426271,307.1650008916855 Q679.5001878219842,307.1650008916855 677.5501881706714,308.6450006270409 Q675.6101885175705,310.1250003623963 675.6101885175705,312.56499992609025 L675.6101885175705,312.56499992609025 Q675.6101885175705,315.16499946117403 677.4501881885529,316.384999243021 Q679.2801878613233,317.60499902486805 684.3901869475841,318.54499885678297 L684.3901869475841,318.54499885678297 Q687.7801863414048,319.1949987405539 689.8301859748364,319.80499863147736 Q691.8801856082678,320.4149985224009 693.8601852542162,321.6449983024597 Q695.8401849001647,322.86499808430676 696.7401847392321,324.84499773025516 Q697.6401845782995,326.82499737620356 697.6401845782995,329.70499686121946 L697.6401845782995,329.70499686121946 Q697.6401845782995,334.9649959206581 694.0801852148771,338.05499536812306 Q690.5101858532429,341.1549948137999 683.8201870495081,341.1549948137999 z" paint-order="stroke" id="xe_sxbdv4" fill="#ffffff" stroke="#000000" stroke-width="0"></path><path d="M716.2901812434196,340.50499493002894 L710.3101823127271,340.50499493002894 L710.3101823127271,284.84500488281253 L716.2901812434196,284.84500488281253 L716.2901812434196,308.8250005948544 Q717.6601809984445,305.94500110983853 720.8301804316044,304.07500144422056 Q723.9901798665524,302.20500177860265 728.390179079771,302.20500177860265 L728.390179079771,302.20500177860265 Q734.5801779729128,302.20500177860265 738.1101773416996,305.87500112235546 Q741.6301767122745,309.5450004661084 741.6301767122745,317.39499906241895 L741.6301767122745,317.39499906241895 L741.6301767122745,340.50499493002894 L735.6601777797937,340.50499493002894 L735.6601777797937,316.96499913930893 Q735.6601777797937,311.9950000280142 733.5001781660318,309.6850004410744 Q731.34017855227,307.3850008523465 726.8001793640851,307.3850008523465 L726.8001793640851,307.3850008523465 Q722.4101801490783,307.3850008523465 719.350180696249,310.1250003623963 Q716.2901812434196,312.85499987423424 716.2901812434196,317.68499901056293 L716.2901812434196,317.68499901056293 L716.2901812434196,340.50499493002894 z" paint-order="stroke" id="xe_kuqztq" fill="#ffffff" stroke="#000000" stroke-width="0"></path><path d="M772.380171213746,341.1549948137999 L772.380171213746,341.1549948137999 Q764.3101726567746,341.1549948137999 759.2401735633612,335.93499574720863 Q754.1601744717359,330.71499668061733 754.1601744717359,322.07499822556974 L754.1601744717359,322.07499822556974 L754.1601744717359,321.4949983292818 Q754.1601744717359,313.00499984741214 759.0901735901833,307.6050008130074 Q764.0301727068423,302.20500177860265 771.8001713174581,302.20500177860265 L771.8001713174581,302.20500177860265 Q779.0001700299978,302.20500177860265 783.8601691609621,306.845000948906 Q788.7201682919264,311.4850001192093 788.7201682919264,320.9249984312058 L788.7201682919264,320.9249984312058 L788.7201682919264,322.86499808430676 L760.3501733648777,322.86499808430676 Q760.5701733255387,329.34499692559245 763.630172778368,332.7649963140488 Q766.6901722311974,336.18499570250515 772.4501712012292,336.18499570250515 L772.4501712012292,336.18499570250515 Q781.3101696169377,336.18499570250515 782.4601694113016,329.6349968737364 L782.4601694113016,329.6349968737364 L788.4301683437825,329.6349968737364 Q787.5001685100793,335.1749958831072 783.1801692825557,338.16499534845354 Q778.8601700550317,341.1549948137999 772.380171213746,341.1549948137999 zM760.5701733255387,318.04499894618993 L760.5701733255387,318.04499894618993 L782.6001693862677,318.04499894618993 Q781.8101695275308,307.1650008916855 771.8001713174581,307.1650008916855 L771.8001713174581,307.1650008916855 Q767.2701721274852,307.1650008916855 764.3101726567746,310.0850003695488 Q761.3601731842756,313.00499984741214 760.5701733255387,318.04499894618993 z" paint-order="stroke" id="xe_d7xpuy" fill="#ffffff" stroke="#000000" stroke-width="0"></path><path d="M815.6501634764671,341.1549948137999 L815.6501634764671,341.1549948137999 Q808.0901648283005,341.1549948137999 803.3701656723023,336.11499571502213 Q798.6601665145158,331.07499661624433 798.6601665145158,322.43499816119675 L798.6601665145158,322.43499816119675 L798.6601665145158,321.85499826490883 Q798.6601665145158,313.2149998098612 803.5501656401157,307.705000795126 Q808.4501647639275,302.20500177860265 816.2301633727551,302.20500177860265 L816.2301633727551,302.20500177860265 Q824.5801618796587,302.20500177860265 828.5401611715555,308.8950005823374 L828.5401611715555,308.8950005823374 L828.5401611715555,284.84500488281253 L834.5101601040363,284.84500488281253 L834.5101601040363,340.50499493002894 L828.5401611715555,340.50499493002894 L828.5401611715555,334.02499608874325 Q826.8101614809037,336.9049955737591 823.2101621246338,339.0249951946736 Q819.6101627683639,341.1549948137999 815.6501634764671,341.1549948137999 zM816.300163360238,336.18499570250515 L816.300163360238,336.18499570250515 Q821.840162369609,336.18499570250515 825.3001617509126,332.5449963533879 Q828.7501611340045,328.91499700248244 828.7501611340045,321.92499825239184 L828.7501611340045,321.92499825239184 L828.7501611340045,321.3549983543158 Q828.7501611340045,314.2949996167422 825.6201616936922,310.73500025331975 Q822.4901622533798,307.1650008916855 816.800163270831,307.1650008916855 L816.800163270831,307.1650008916855 Q811.1901642739773,307.1650008916855 808.0201648408174,310.94500021576886 Q804.8501654076576,314.72499953985215 804.8501654076576,321.56499831676484 L804.8501654076576,321.56499831676484 L804.8501654076576,322.14499821305276 Q804.8501654076576,328.98499698996545 808.050164835453,332.5849963462353 Q811.2601642614603,336.18499570250515 816.300163360238,336.18499570250515 z" paint-order="stroke" id="xe_6v98m8" fill="#ffffff" stroke="#000000" stroke-width="0"></path></g></g><g id="xe_vssf9g" type="image" style="pointer-events: bounding-box;" xe-props="&amp;#35;&amp;#103;&amp;#76;&amp;#73;&amp;#65;&amp;#101;&amp;#122;&amp;#127;&amp;#26;&amp;#89;&amp;#92;&amp;#97;&amp;#63;&amp;#32;&amp;#26;&amp;#28;&amp;#19;&amp;#111;&amp;#58;&amp;#47;&amp;#93;&amp;#83;&amp;#69;&amp;#84;&amp;#49;&amp;#49;&amp;#84;&amp;#85;&amp;#19;&amp;#58;&amp;#122;&amp;#103;&amp;#20;&amp;#18;&amp;#88;&amp;#115;&amp;#12;&amp;#32;&amp;#85;&amp;#64;&amp;#93;&amp;#97;&amp;#44;&amp;#32;&amp;#113;&amp;#93;&amp;#86;&amp;#34;&amp;#98;&amp;#35;&amp;#89;&amp;#92;&amp;#66;&amp;#101;&amp;#116;&amp;#103;&amp;#91;&amp;#95;&amp;#95;&amp;#116;&amp;#61;&amp;#43;&amp;#76;&amp;#100;&amp;#72;&amp;#112;&amp;#61;&amp;#103;&amp;#2;&amp;#18;&amp;#88;&amp;#109;&amp;#57;&amp;#34;&amp;#93;&amp;#31;&amp;#65;&amp;#110;&amp;#63;&amp;#103;&amp;#20;&amp;#18;&amp;#88;&amp;#109;&amp;#63;&amp;#0;&amp;#64;&amp;#68;&amp;#84;&amp;#110;&amp;#43;&amp;#44;&amp;#87;&amp;#94;&amp;#19;&amp;#58;&amp;#122;&amp;#53;&amp;#86;&amp;#87;&amp;#19;&amp;#44;&amp;#122;&amp;#42;&amp;#86;&amp;#85;&amp;#114;&amp;#111;&amp;#52;&amp;#42;&amp;#74;&amp;#118;&amp;#88;&amp;#108;&amp;#52;&amp;#103;&amp;#2;&amp;#18;&amp;#18;&amp;#102;&amp;#62;&amp;#117;&amp;#8;&amp;#0;&amp;#1;&amp;#34;&amp;#116;&amp;#103;&amp;#74;&amp;#85;&amp;#66;&amp;#83;&amp;#44;&amp;#36;&amp;#76;&amp;#69;&amp;#66;&amp;#34;&amp;#98;&amp;#49;&amp;#74;&amp;#69;&amp;#84;&amp;#44;&amp;#122;&amp;#53;&amp;#93;&amp;#66;&amp;#120;&amp;#110;&amp;#59;&amp;#45;&amp;#111;&amp;#96;&amp;#73;&amp;#34;&amp;#98;&amp;#116;&amp;#9;&amp;#7;&amp;#31;&amp;#54;&amp;#105;&amp;#125;&amp;#11;&amp;#4;&amp;#1;&amp;#49;&amp;#104;&amp;#112;&amp;#9;&amp;#5;&amp;#0;&amp;#57;&amp;#108;&amp;#105;&amp;#26;&amp;#64;&amp;#84;&amp;#114;&amp;#17;&amp;#43;&amp;#91;&amp;#88;&amp;#121;&amp;#80;&amp;#32;&amp;#103;&amp;#2;&amp;#5;&amp;#9;&amp;#46;&amp;#108;&amp;#112;&amp;#10;&amp;#2;&amp;#2;&amp;#55;&amp;#104;&amp;#117;&amp;#9;&amp;#2;&amp;#1;&amp;#57;&amp;#105;&amp;#124;&amp;#20;&amp;#18;&amp;#92;&amp;#97;&amp;#32;&amp;#22;&amp;#91;&amp;#81;&amp;#93;&amp;#101;&amp;#15;&amp;#49;&amp;#26;&amp;#10;&amp;#19;&amp;#52;&amp;#118;&amp;#119;&amp;#26;&amp;#28;&amp;#19;&amp;#109;&amp;#57;&amp;#61;&amp;#107;&amp;#83;&amp;#80;&amp;#108;&amp;#61;&amp;#13;&amp;#76;&amp;#18;&amp;#11;&amp;#34;&amp;#108;&amp;#107;&amp;#11;&amp;#18;&amp;#29;&amp;#34;&amp;#45;&amp;#53;&amp;#84;&amp;#95;&amp;#80;&amp;#100;&amp;#61;&amp;#33;&amp;#113;&amp;#93;&amp;#86;&amp;#34;&amp;#98;&amp;#103;&amp;#80;&amp;#68;&amp;#69;&amp;#112;&amp;#43;&amp;#127;&amp;#23;&amp;#31;&amp;#88;&amp;#109;&amp;#40;&amp;#55;&amp;#81;&amp;#94;&amp;#69;&amp;#110;&amp;#61;&amp;#61;&amp;#76;&amp;#30;&amp;#88;&amp;#111;&amp;#119;&amp;#61;&amp;#93;&amp;#68;&amp;#94;&amp;#111;&amp;#52;&amp;#106;&amp;#89;&amp;#67;&amp;#66;&amp;#101;&amp;#44;&amp;#54;&amp;#23;&amp;#82;&amp;#67;&amp;#111;&amp;#47;&amp;#54;&amp;#93;&amp;#66;&amp;#110;&amp;#105;&amp;#53;&amp;#36;&amp;#95;&amp;#85;&amp;#66;&amp;#47;&amp;#106;&amp;#117;&amp;#10;&amp;#2;&amp;#0;&amp;#49;&amp;#106;&amp;#115;&amp;#8;&amp;#8;&amp;#4;&amp;#49;&amp;#104;&amp;#114;&amp;#10;&amp;#6;&amp;#5;&amp;#56;&amp;#118;&amp;#53;&amp;#86;&amp;#87;&amp;#19;&amp;#44;&amp;#122;&amp;#42;&amp;#74;&amp;#89;&amp;#86;&amp;#105;&amp;#54;&amp;#36;&amp;#84;&amp;#121;&amp;#92;&amp;#103;&amp;#122;&amp;#127;&amp;#26;&amp;#82;&amp;#93;&amp;#111;&amp;#58;&amp;#127;&amp;#80;&amp;#68;&amp;#69;&amp;#112;&amp;#43;&amp;#127;&amp;#23;&amp;#31;&amp;#66;&amp;#118;&amp;#63;&amp;#104;&amp;#93;&amp;#84;&amp;#88;&amp;#116;&amp;#55;&amp;#55;&amp;#22;&amp;#83;&amp;#94;&amp;#109;&amp;#119;&amp;#35;&amp;#1;&amp;#9;&amp;#1;&amp;#49;&amp;#107;&amp;#32;&amp;#94;&amp;#29;&amp;#82;&amp;#57;&amp;#59;&amp;#38;&amp;#21;&amp;#4;&amp;#80;&amp;#55;&amp;#108;&amp;#104;&amp;#0;&amp;#4;&amp;#80;&amp;#57;&amp;#117;&amp;#114;&amp;#10;&amp;#83;&amp;#82;&amp;#48;&amp;#108;&amp;#33;&amp;#91;&amp;#2;&amp;#3;&amp;#55;&amp;#58;&amp;#103;&amp;#20;&amp;#18;&amp;#94;&amp;#112;&amp;#44;&amp;#44;&amp;#87;&amp;#94;&amp;#120;&amp;#110;&amp;#60;&amp;#32;&amp;#64;&amp;#102;&amp;#80;&amp;#108;&amp;#122;&amp;#127;&amp;#26;&amp;#95;&amp;#67;&amp;#105;&amp;#63;&amp;#44;&amp;#86;&amp;#81;&amp;#93;&amp;#34;&amp;#116;&amp;#103;&amp;#94;&amp;#89;&amp;#93;&amp;#116;&amp;#61;&amp;#55;&amp;#113;&amp;#94;&amp;#87;&amp;#111;&amp;#122;&amp;#127;&amp;#67;&amp;#77;&amp;#29;&amp;#34;&amp;#42;&amp;#32;&amp;#92;&amp;#69;&amp;#82;&amp;#101;&amp;#27;&amp;#42;&amp;#84;&amp;#95;&amp;#67;&amp;#73;&amp;#54;&amp;#35;&amp;#87;&amp;#18;&amp;#11;&amp;#123;&amp;#122;&amp;#44;&amp;#75;&amp;#115;&amp;#94;&amp;#108;&amp;#55;&amp;#55;&amp;#119;&amp;#64;&amp;#69;&amp;#105;&amp;#55;&amp;#43;&amp;#26;&amp;#10;&amp;#87;&amp;#97;&amp;#52;&amp;#54;&amp;#93;&amp;#28;&amp;#19;&amp;#114;&amp;#61;&amp;#33;&amp;#77;&amp;#83;&amp;#84;&amp;#67;&amp;#55;&amp;#41;&amp;#87;&amp;#66;&amp;#125;&amp;#105;&amp;#43;&amp;#49;&amp;#26;&amp;#10;&amp;#74;&amp;#125;&amp;#37;&amp;#105;&amp;#26;&amp;#89;&amp;#66;&amp;#82;&amp;#61;&amp;#40;&amp;#87;&amp;#70;&amp;#84;&amp;#65;&amp;#52;&amp;#41;&amp;#111;&amp;#88;&amp;#88;&amp;#116;&amp;#61;&amp;#103;&amp;#2;&amp;#0;&amp;#29;&amp;#34;&amp;#49;&amp;#54;&amp;#106;&amp;#85;&amp;#92;&amp;#111;&amp;#46;&amp;#32;&amp;#119;&amp;#69;&amp;#69;&amp;#101;&amp;#42;&amp;#18;&amp;#80;&amp;#89;&amp;#69;&amp;#101;&amp;#122;&amp;#127;&amp;#8;&amp;#28;&amp;#19;&amp;#101;&amp;#60;&amp;#44;&amp;#76;&amp;#118;&amp;#88;&amp;#108;&amp;#44;&amp;#32;&amp;#74;&amp;#18;&amp;#11;&amp;#123;&amp;#122;&amp;#39;&amp;#74;&amp;#89;&amp;#86;&amp;#104;&amp;#44;&amp;#19;&amp;#89;&amp;#92;&amp;#68;&amp;#101;&amp;#122;&amp;#127;&amp;#8;&amp;#28;&amp;#19;&amp;#99;&amp;#55;&amp;#43;&amp;#76;&amp;#66;&amp;#80;&amp;#115;&amp;#44;&amp;#19;&amp;#89;&amp;#92;&amp;#68;&amp;#101;&amp;#122;&amp;#127;&amp;#8;&amp;#28;&amp;#19;&amp;#115;&amp;#57;&amp;#49;&amp;#77;&amp;#66;&amp;#103;&amp;#97;&amp;#52;&amp;#48;&amp;#93;&amp;#18;&amp;#11;&amp;#48;&amp;#116;&amp;#103;&amp;#80;&amp;#69;&amp;#84;&amp;#86;&amp;#57;&amp;#41;&amp;#77;&amp;#85;&amp;#19;&amp;#58;&amp;#104;&amp;#105;&amp;#26;&amp;#82;&amp;#93;&amp;#117;&amp;#42;&amp;#19;&amp;#89;&amp;#92;&amp;#68;&amp;#101;&amp;#122;&amp;#127;&amp;#8;&amp;#77;&amp;#29;&amp;#34;&amp;#53;&amp;#36;&amp;#75;&amp;#91;&amp;#120;&amp;#110;&amp;#62;&amp;#42;&amp;#26;&amp;#10;&amp;#74;&amp;#125;&amp;#116;&amp;#103;&amp;#84;&amp;#95;&amp;#82;&amp;#107;&amp;#122;&amp;#127;&amp;#67;&amp;#18;&amp;#85;&amp;#101;&amp;#52;&amp;#32;&amp;#76;&amp;#85;&amp;#19;&amp;#58;&amp;#62;&amp;#36;&amp;#84;&amp;#67;&amp;#84;&amp;#44;&amp;#122;&amp;#40;&amp;#87;&amp;#70;&amp;#84;&amp;#34;&amp;#98;&amp;#35;&amp;#89;&amp;#92;&amp;#66;&amp;#101;&amp;#116;&amp;#103;&amp;#74;&amp;#95;&amp;#69;&amp;#97;&amp;#44;&amp;#32;&amp;#26;&amp;#10;&amp;#87;&amp;#97;&amp;#52;&amp;#54;&amp;#93;&amp;#28;&amp;#19;&amp;#114;&amp;#61;&amp;#54;&amp;#81;&amp;#74;&amp;#84;&amp;#34;&amp;#98;&amp;#35;&amp;#89;&amp;#92;&amp;#66;&amp;#101;&amp;#116;&amp;#103;&amp;#94;&amp;#89;&amp;#93;&amp;#116;&amp;#61;&amp;#55;&amp;#26;&amp;#10;&amp;#87;&amp;#97;&amp;#52;&amp;#54;&amp;#93;&amp;#28;&amp;#19;&amp;#109;&amp;#57;&amp;#54;&amp;#83;&amp;#18;&amp;#11;&amp;#102;&amp;#57;&amp;#41;&amp;#75;&amp;#85;&amp;#29;&amp;#34;&amp;#61;&amp;#33;&amp;#81;&amp;#68;&amp;#19;&amp;#58;&amp;#62;&amp;#36;&amp;#84;&amp;#67;&amp;#84;&amp;#125;&amp;#116;&amp;#103;&amp;#77;&amp;#64;&amp;#85;&amp;#97;&amp;#44;&amp;#32;&amp;#92;&amp;#118;&amp;#88;&amp;#108;&amp;#61;&amp;#103;&amp;#2;&amp;#18;&amp;#83;&amp;#108;&amp;#55;&amp;#39;&amp;#2;&amp;#88;&amp;#69;&amp;#116;&amp;#40;&amp;#54;&amp;#2;&amp;#31;&amp;#30;&amp;#115;&amp;#46;&amp;#34;&amp;#21;&amp;#85;&amp;#85;&amp;#105;&amp;#44;&amp;#42;&amp;#74;&amp;#30;&amp;#82;&amp;#111;&amp;#53;&amp;#106;&amp;#94;&amp;#9;&amp;#8;&amp;#48;&amp;#105;&amp;#118;&amp;#93;&amp;#86;&amp;#28;&amp;#99;&amp;#97;&amp;#38;&amp;#91;&amp;#29;&amp;#5;&amp;#97;&amp;#111;&amp;#113;&amp;#21;&amp;#8;&amp;#5;&amp;#97;&amp;#97;&amp;#104;&amp;#15;&amp;#2;&amp;#82;&amp;#99;&amp;#104;&amp;#113;&amp;#92;&amp;#83;&amp;#3;&amp;#50;&amp;#111;&amp;#39;&amp;#26;&amp;#28;&amp;#19;&amp;#105;&amp;#54;&amp;#49;&amp;#93;&amp;#66;&amp;#92;&amp;#101;&amp;#60;&amp;#44;&amp;#89;&amp;#68;&amp;#84;&amp;#70;&amp;#49;&amp;#41;&amp;#93;&amp;#18;&amp;#11;&amp;#34;&amp;#58;&amp;#41;&amp;#87;&amp;#82;&amp;#11;&amp;#104;&amp;#44;&amp;#49;&amp;#72;&amp;#67;&amp;#11;&amp;#47;&amp;#119;&amp;#54;&amp;#78;&amp;#87;&amp;#28;&amp;#101;&amp;#60;&amp;#44;&amp;#76;&amp;#95;&amp;#67;&amp;#46;&amp;#59;&amp;#42;&amp;#85;&amp;#31;&amp;#87;&amp;#57;&amp;#97;&amp;#117;&amp;#9;&amp;#3;&amp;#84;&amp;#102;&amp;#117;&amp;#38;&amp;#1;&amp;#83;&amp;#82;&amp;#45;&amp;#108;&amp;#36;&amp;#15;&amp;#4;&amp;#28;&amp;#56;&amp;#108;&amp;#36;&amp;#1;&amp;#29;&amp;#6;&amp;#50;&amp;#59;&amp;#38;&amp;#8;&amp;#4;&amp;#85;&amp;#99;&amp;#106;&amp;#119;&amp;#15;&amp;#82;&amp;#19;&amp;#44;&amp;#122;&amp;#48;&amp;#72;&amp;#84;&amp;#80;&amp;#116;&amp;#61;&amp;#33;&amp;#122;&amp;#92;&amp;#94;&amp;#98;&amp;#122;&amp;#127;&amp;#67;&amp;#77;&amp;#29;&amp;#34;&amp;#55;&amp;#55;&amp;#81;&amp;#87;&amp;#88;&amp;#110;&amp;#57;&amp;#41;&amp;#122;&amp;#92;&amp;#94;&amp;#98;&amp;#122;&amp;#127;&amp;#67;&amp;#77;&amp;#29;&amp;#34;&amp;#49;&amp;#40;&amp;#95;&amp;#99;&amp;#84;&amp;#108;&amp;#61;&amp;#38;&amp;#76;&amp;#89;&amp;#94;&amp;#110;&amp;#12;&amp;#60;&amp;#72;&amp;#85;&amp;#19;&amp;#58;&amp;#122;&amp;#103;&amp;#20;&amp;#18;&amp;#67;&amp;#101;&amp;#53;&amp;#42;&amp;#78;&amp;#85;&amp;#102;&amp;#104;&amp;#49;&amp;#49;&amp;#93;&amp;#121;&amp;#95;&amp;#100;&amp;#61;&amp;#61;&amp;#26;&amp;#10;&amp;#87;&amp;#97;&amp;#52;&amp;#54;&amp;#93;&amp;#28;&amp;#19;&amp;#99;&amp;#55;&amp;#41;&amp;#87;&amp;#66;&amp;#66;&amp;#34;&amp;#98;&amp;#30;&amp;#26;&amp;#118;&amp;#68;&amp;#108;&amp;#52;&amp;#103;&amp;#101;&amp;#28;&amp;#19;&amp;#105;&amp;#53;&amp;#36;&amp;#95;&amp;#85;&amp;#102;&amp;#97;&amp;#42;&amp;#43;&amp;#81;&amp;#94;&amp;#86;&amp;#34;&amp;#98;&amp;#35;&amp;#89;&amp;#92;&amp;#66;&amp;#101;&amp;#116;&amp;#103;&amp;#77;&amp;#64;&amp;#85;&amp;#97;&amp;#44;&amp;#32;&amp;#107;&amp;#68;&amp;#80;&amp;#116;&amp;#45;&amp;#54;&amp;#26;&amp;#10;&amp;#69;&amp;#114;&amp;#45;&amp;#32;&amp;#20;&amp;#18;&amp;#92;&amp;#111;&amp;#54;&amp;#42;&amp;#91;&amp;#88;&amp;#67;&amp;#111;&amp;#53;&amp;#32;&amp;#126;&amp;#89;&amp;#93;&amp;#108;&amp;#122;&amp;#127;&amp;#26;&amp;#19;&amp;#87;&amp;#102;&amp;#104;&amp;#117;&amp;#8;&amp;#0;&amp;#19;&amp;#44;&amp;#122;&amp;#36;&amp;#77;&amp;#68;&amp;#94;&amp;#67;&amp;#55;&amp;#43;&amp;#78;&amp;#85;&amp;#67;&amp;#116;&amp;#11;&amp;#49;&amp;#89;&amp;#68;&amp;#68;&amp;#115;&amp;#122;&amp;#127;&amp;#94;&amp;#81;&amp;#93;&amp;#115;&amp;#61;&amp;#105;&amp;#26;&amp;#95;&amp;#95;&amp;#101;&amp;#27;&amp;#42;&amp;#84;&amp;#95;&amp;#67;&amp;#84;&amp;#48;&amp;#48;&amp;#85;&amp;#82;&amp;#19;&amp;#58;&amp;#122;&amp;#39;&amp;#84;&amp;#95;&amp;#83;&amp;#58;&amp;#48;&amp;#49;&amp;#76;&amp;#64;&amp;#66;&amp;#58;&amp;#119;&amp;#106;&amp;#75;&amp;#70;&amp;#86;&amp;#45;&amp;#61;&amp;#33;&amp;#81;&amp;#68;&amp;#94;&amp;#114;&amp;#118;&amp;#38;&amp;#87;&amp;#93;&amp;#30;&amp;#102;&amp;#111;&amp;#38;&amp;#89;&amp;#0;&amp;#2;&amp;#53;&amp;#104;&amp;#104;&amp;#12;&amp;#0;&amp;#85;&amp;#56;&amp;#117;&amp;#113;&amp;#90;&amp;#81;&amp;#6;&amp;#45;&amp;#57;&amp;#118;&amp;#89;&amp;#6;&amp;#28;&amp;#98;&amp;#110;&amp;#112;&amp;#11;&amp;#7;&amp;#83;&amp;#48;&amp;#108;&amp;#114;&amp;#9;&amp;#86;&amp;#7;&amp;#34;&amp;#116;&amp;#103;&amp;#85;&amp;#95;&amp;#95;&amp;#111;&amp;#59;&amp;#45;&amp;#74;&amp;#95;&amp;#92;&amp;#101;&amp;#12;&amp;#45;&amp;#77;&amp;#93;&amp;#83;&amp;#34;&amp;#98;&amp;#103;&amp;#90;&amp;#92;&amp;#94;&amp;#98;&amp;#98;&amp;#45;&amp;#76;&amp;#68;&amp;#65;&amp;#115;&amp;#98;&amp;#106;&amp;#23;&amp;#67;&amp;#71;&amp;#103;&amp;#117;&amp;#32;&amp;#92;&amp;#89;&amp;#69;&amp;#111;&amp;#42;&amp;#107;&amp;#91;&amp;#95;&amp;#92;&amp;#47;&amp;#110;&amp;#36;&amp;#91;&amp;#9;&amp;#85;&amp;#53;&amp;#107;&amp;#118;&amp;#21;&amp;#5;&amp;#6;&amp;#52;&amp;#57;&amp;#104;&amp;#12;&amp;#84;&amp;#85;&amp;#49;&amp;#117;&amp;#36;&amp;#93;&amp;#9;&amp;#83;&amp;#45;&amp;#61;&amp;#124;&amp;#93;&amp;#81;&amp;#3;&amp;#49;&amp;#104;&amp;#117;&amp;#13;&amp;#2;&amp;#84;&amp;#56;&amp;#122;&amp;#56;"><image x="355.47918701171875" y="187.32766723632812" width="244.0416528582573" height="251.3446449637413" id="xe_eilxbh" style="pointer-events:inherit" xlink:href="https://imprintnext.io/xetool/assets/user/202211260851156984.png"></image></g></g><g id="borderG" clip-path="url(#bound_0)" display="none"><rect id="border" x="134.64253859348207" y="71.30000000000001" width="685.7149228130359" height="483.4" aWidth="8.27" aHeight="5.83" fill="none" stroke-width="1" stroke="#000" pointer-events="none"></rect></g></svg>